<?xml version="1.0" encoding="utf-8"?>
<!DOCTYPE svg PUBLIC "-//W3C//DTD SVG 1.1//EN" "http://www.w3.org/Graphics/SVG/1.1/DTD/svg11.dtd">
<svg style="width:308px;height:308px;" version="1.1" id="图形" xmlns="http://www.w3.org/2000/svg" xmlns:xlink="http://www.w3.org/1999/xlink" x="0px" y="0px" width="1024px" height="1024px" viewBox="0 0 1024 1024" enable-background="new 0 0 1024 1024" xml:space="preserve">
  <path class="svgpath" data-index="path_0" fill="#56abe4" d="M518.207887 920.879388c228.048903 0 413.573293-185.52439 413.573293-413.565107 0-228.022297-185.52439-413.564084-413.573293-413.564084-228.030483 0-413.564084 185.541787-413.564084 413.564084C104.644827 735.356021 290.177404 920.879388 518.207887 920.879388M518.207887 958.4951c-249.169943 0-451.160353-202.009853-451.160353-451.179796S269.037944 56.145741 518.207887 56.145741c249.196549 0 451.170586 201.99962 451.170586 451.169563S767.405459 958.4951 518.207887 958.4951L518.207887 958.4951 518.207887 958.4951z" />
<path class="svgpath" data-index="path_1" fill="#56abe4" d="M537.015232 620.105137l0 93.973278c0 16.871249-1.945305 37.615713-18.807345 37.615713-16.889669 0-18.788925-20.74344-18.788925-37.615713l0-93.973278c-111.697965 0-225.588875-129.329531-225.588875-279.991925 0-35.338856 150.396335 35.632545 150.396335 35.632545s68.225871-94.028537 93.982488-94.028537c25.7822 0 93.999884 94.028537 93.999884 94.028537s150.388149-73.90829 150.388149-37.614689l0 1.983167C762.596943 463.312114 662.472572 620.105137 537.015232 620.105137L537.015232 620.105137zM593.41066 413.323607c0 0-66.602907-91.806939-74.129324-92.872201-7.544837-1.101077-76.267011 92.872201-76.267011 92.872201s-117.912503-52.190663-131.569548-37.57785c-2.157129 55.146994 57.836243 206.763111 206.763111 206.763111 150.835334 0 205.726501-171.607426 206.791763-206.763111C721.144856 355.074971 593.41066 413.323607 593.41066 413.323607L593.41066 413.323607zM311.444776 638.921691c105.2276 0 162.154124 112.771413 115.139344 112.771413-8.425903 0-16.072047-3.412726-21.61632-8.922207l-0.384763 0.384763c-18.614963-37.173644-35.008328-66.657142-93.13826-66.657142-16.898879 0-37.614689 0.550539-37.614689-16.282848C273.830087 643.420145 294.545898 638.921691 311.444776 638.921691L311.444776 638.921691zM723.677539 676.499541c-43.032072 0-73.614601 35.026748-96.41591 66.657142l-0.404206-0.384763c-5.728468 5.509481-13.621229 8.922207-22.35924 8.922207-40.167838 0 21.588691-112.771413 119.178333-112.771413 17.476023 0 38.918381 4.498454 38.918381 21.295002C762.596943 677.05008 741.153562 676.499541 723.677539 676.499541L723.677539 676.499541z" />

</svg>
